<svg version="1.1" xmlns="http://www.w3.org/2000/svg" xmlns:xlink="http://www.w3.org/1999/xlink" width="249.80986" height="245.92482" viewBox="293.4259,102.5,249.80986,245.92482"><g fill-opacity="0" fill="#000000" fill-rule="nonzero" stroke="#000000" stroke-width="1" stroke-linecap="round" stroke-linejoin="round" stroke-miterlimit="10" stroke-dasharray="" stroke-dashoffset="0" font-family="none" font-weight="none" font-size="none" text-anchor="none" style="mix-blend-mode: normal"><g id="Group 1"><path d="M407.823,235.56808l0.95106,-0.30902l1.54508,4.75528l-0.95106,0.30902z" id="Path 1"/><path d="M398.34613,211.4757l0.58779,0.80902l-4.04508,2.93893l-0.58779,-0.80902z" id="Path 1"/><path d="M418.33083,195.01772l-0.58779,0.80902l-4.04508,-2.93893l0.58779,-0.80902z" id="Path 1"/><path d="M440.15892,208.9385l-0.95106,-0.30902l1.54508,-4.75528l0.95106,0.30902z" id="Path 1"/><path d="M360.99555,219.1089v-116.1089h114.67057v116.1089z" id="Path 1"/><path d="M400.61326,162.66889l106.68735,-35.87962l35.43515,112.88004l-106.68735,35.87962z" id="Path 1"/><path d="M464.71606,184.22705l65.93642,93.93407l-92.77044,69.7637l-65.93642,-93.93407z" id="Path 1"/><path d="M464.71605,253.99075l-65.93642,93.93407l-92.77044,-69.7637l65.93642,-93.93407z" id="Path 1"/><path d="M400.61325,275.54893l-106.68735,-35.87962l35.43515,-112.88004l106.68735,35.87962z" id="Path 1"/></g></g></svg>